M48
; DRILL file KiCad 10.0.0 date 2026-07-26T01:13:23
; FORMAT={-:-/ absolute / inch / decimal}
; #@! TF.CreationDate,2026-07-26T01:13:23-04:00
; #@! TF.GenerationSoftware,Kicad,Pcbnew,10.0.0
; #@! TF.FileFunction,Plated,1,2,PTH
FMAT,2
INCH
; #@! TA.AperFunction,Plated,PTH,ComponentDrill
T1C0.0079
; #@! TA.AperFunction,Plated,PTH,ViaDrill
T2C0.0118
; #@! TA.AperFunction,Plated,PTH,ComponentDrill
T3C0.0315
; #@! TA.AperFunction,Plated,PTH,ComponentDrill
T4C0.0374
; #@! TA.AperFunction,Plated,PTH,ComponentDrill
T5C0.0394
; #@! TA.AperFunction,Plated,PTH,ComponentDrill
T6C0.0402
; #@! TA.AperFunction,Plated,PTH,ComponentDrill
T7C0.0512
; #@! TA.AperFunction,Plated,PTH,ComponentDrill
T8C0.0591
%
G90
G05
T1
X4.7382Y-2.5106
X4.7382Y-2.5657
X4.7657Y-2.4831
X4.7657Y-2.5382
X4.7657Y-2.5933
X4.7923Y-2.5106
X4.7923Y-2.5657
X4.8209Y-2.4831
X4.8209Y-2.5382
X4.8209Y-2.5933
X4.8484Y-2.5106
X4.8484Y-2.5657
T2
X3.4783Y-4.8094
X3.6106Y-4.6591
X3.9161Y-4.8591
X4.0248Y-2.8862
X4.0354Y-3.1788
X4.0437Y-2.6488
X4.0748Y-3.0378
X4.0783Y-2.8957
X4.1Y-3.1886
X4.1217Y-2.7803
X4.1244Y-2.6472
X4.1252Y-3.2535
X4.1642Y-3.0189
X4.1677Y-2.4102
X4.2579Y-2.6799
X4.3071Y-2.8157
X4.3626Y-2.8409
X4.4144Y-2.7921
X4.4165Y-2.9594
X4.4409Y-2.9091
X4.4437Y-4.1213
X4.7209Y-3.6551
X4.7264Y-3.5811
X4.7398Y-3.8575
X4.7598Y-3.876
X4.7673Y-3.8402
X4.7803Y-3.8992
X4.7862Y-4.1106
X4.7874Y-3.8587
X4.7894Y-3.8217
X4.8079Y-3.8819
X4.8094Y-3.8402
X4.8154Y-3.8035
X4.8299Y-3.8634
X4.8354Y-3.822
X4.8417Y-3.9378
X4.8559Y-3.8453
X5.0799Y-2.739
X5.087Y-2.4583
X5.2547Y-2.3264
X5.2874Y-2.2839
X5.3236Y-4.1724
X5.3303Y-2.339
X5.339Y-2.4374
X5.4362Y-2.3732
X5.4799Y-2.9193
X5.4839Y-2.8307
X5.5209Y-2.3732
X5.6283Y-2.8547
X5.8835Y-2.8555
X5.952Y-3.7673
X6.0386Y-3.5469
X6.098Y-2.3307
X6.128Y-1.9299
X6.1366Y-2.2799
X6.1382Y-2.4374
X6.2305Y-4.1311
T3
X3.453Y-3.903
X3.453Y-4.003
X3.753Y-3.903
X3.753Y-4.003
T4
X6.3014Y-4.4291
X6.3014Y-4.5276
X6.3014Y-4.626
X6.3014Y-4.7244
X6.3309Y-2.8642
X6.3309Y-2.9626
X6.3309Y-3.061
X6.6053Y-1.939
X6.6053Y-2.0374
X6.6053Y-2.1358
X6.6053Y-2.2343
X6.6053Y-2.3327
X6.6053Y-2.4311
X6.6053Y-2.5295
T5
X3.7386Y-4.4996
X3.7386Y-4.598
X3.7386Y-4.6965
X4.3094Y-4.4996
X4.3094Y-4.6965
X6.0909Y-1.5354
X6.1909Y-1.5354
X6.2909Y-1.5354
X6.3909Y-1.5354
T7
X3.202Y-2.0008
X3.202Y-2.1976
X3.2148Y-3.8628
X3.2148Y-4.0596
X3.2161Y-2.7839
X3.2161Y-2.9807
X6.4794Y-3.5516
X6.4794Y-3.7484
X6.4794Y-3.9453
T6
G00X4.9606Y-4.1157
M15
G01X5.0787Y-4.1157
M16
G05
G00X4.9606Y-4.3197
M15
G01X5.0787Y-4.3197
M16
G05
T8
G00X4.0083Y-4.3776
M15
G01X4.0594Y-4.3776
M16
G05
G00X4.0083Y-4.8185
M15
G01X4.0594Y-4.8185
M16
G05
M30
